<svg xmlns="http://www.w3.org/2000/svg" viewBox="0 0 800 1200" role="img" aria-labelledby="title desc">
  <title id="title">Liga do Horizonte — página 3</title>
  <desc id="desc">Drones atacam a ponte e Arara Rubra mergulha para interceptá-los.</desc>
  <style>text { stroke: none; }</style>
  <defs><linearGradient id="air" x1="0" y1="0" x2="1" y2="1"><stop stop-color="#111a33"/><stop offset="1" stop-color="#471326"/></linearGradient></defs>
  <rect width="800" height="1200" fill="#efe7d7"/>
  <rect x="24" y="24" width="752" height="1152" fill="#080b13"/>
  <g stroke="#080b13" stroke-width="12">
    <g>
      <rect x="38" y="38" width="724" height="310" fill="url(#air)"/>
      <g fill="#171d2a" stroke="#f14953" stroke-width="4"><path d="m126 125 48-26 48 26v52l-48 27-48-27z"/><path d="m513 94 48-26 48 26v53l-48 27-48-27z"/><path d="m326 194 48-27 48 27v52l-48 27-48-27z"/></g>
      <g fill="#ff5260" stroke="none"><circle cx="174" cy="151" r="10"/><circle cx="561" cy="121" r="10"/><circle cx="374" cy="220" r="10"/></g>
      <path d="M38 295 762 87M38 230 584 38m-281 310 459-132" stroke="#ef3648" stroke-width="4" opacity=".35"/>
      <rect x="55" y="60" width="310" height="72" rx="4" fill="#fff5d9" stroke="none"/>
      <text x="77" y="89" fill="#111" font-family="Arial, sans-serif" font-size="18" font-weight="700">SEGUNDO SINAL:</text>
      <text x="77" y="115" fill="#111" font-family="Arial, sans-serif" font-size="19">Objetos sem registro. Vinte e três.</text>
    </g>
    <g>
      <rect x="38" y="360" width="724" height="478" fill="#16172b"/>
      <circle cx="525" cy="527" r="122" fill="#f2493e" opacity=".18" stroke="none"/>
      <g transform="translate(393 566) rotate(-18)">
        <path d="M-22-103 0-129l23 26 4 55-27 26-27-26z" fill="#090b12" stroke="none"/>
        <path d="M-20-19h40l26 102-46 74-45-74z" fill="#090b12" stroke="none"/>
        <path d="M-30 0c-101 11-188 67-253 170 104-37 183-30 246 8L-7 50z" fill="#b21e35" stroke="#f04a46" stroke-width="5"/>
        <path d="M30 0c101 11 188 67 253 170-104-37-183-30-246 8L7 50z" fill="#b21e35" stroke="#f04a46" stroke-width="5"/>
        <path d="M-247 142c66-18 130-16 192 9m302-9c-66-18-130-16-192 9" fill="none" stroke="#ffc84c" stroke-width="7"/>
        <path d="m-12 9 12-16L13 9 0 39z" fill="#ffd153" stroke="none"/>
      </g>
      <g fill="#171d29" stroke="#ef3b4c" stroke-width="4"><path d="m104 415 37-19 36 19v40l-36 20-37-20z"/><path d="m634 669 38-21 38 21v41l-38 21-38-21z"/></g>
      <rect x="466" y="390" width="263" height="72" rx="35" fill="#fff" stroke="none"/>
      <path d="m511 458-33 30 12-39" fill="#fff" stroke="none"/>
      <text x="506" y="421" fill="#111" font-family="Arial, sans-serif" font-size="21" font-weight="700">O céu é meu.</text>
      <text x="506" y="447" fill="#111" font-family="Arial, sans-serif" font-size="18">Protejam quem está embaixo!</text>
      <text x="75" y="786" fill="#ffd24e" stroke="none" font-family="Impact, Arial Black, sans-serif" font-size="77" transform="rotate(-8 75 786)">VRRRAAASH!</text>
    </g>
    <g>
      <rect x="38" y="850" width="352" height="312" fill="#341521"/>
      <path d="m86 1105 102-183 47 112 94-128" fill="none" stroke="#f0444c" stroke-width="13"/>
      <path d="m68 906 84 54m-92 40 111 20m190-103-94 67m105 20-118 43" stroke="#ffbf49" stroke-width="6"/>
      <g transform="translate(220 1012) rotate(14)" fill="#171923" stroke="#ef3c49" stroke-width="4"><path d="m-45-26 45-25 46 25v51L0 51l-45-26z"/><circle r="11" fill="#ff4b56" stroke="none"/></g>
      <text x="63" y="1134" fill="#fff" stroke="none" font-family="Impact, Arial Black, sans-serif" font-size="42">UM A MENOS.</text>
    </g>
    <g>
      <rect x="402" y="850" width="360" height="312" fill="#142a33"/>
      <g transform="translate(578 1017)"><path d="M-27-91h54l35 67-29 115h-66L-62-24z" fill="#080d10" stroke="none"/><path d="M-34 69c-54 9-93 34-122 73m189-73c57 8 99 33 126 73" fill="none" stroke="#71cb6c" stroke-width="11"/></g>
      <rect x="426" y="873" width="309" height="76" rx="36" fill="#fff" stroke="none"/>
      <path d="m585 944 16 31 10-32" fill="#fff" stroke="none"/>
      <text x="462" y="905" fill="#111" font-family="Arial, sans-serif" font-size="20" font-weight="700">Eles não querem a ponte.</text>
      <text x="478" y="932" fill="#111" font-family="Arial, sans-serif" font-size="19">Estão procurando algo.</text>
    </g>
  </g>
  <text x="50" y="1148" fill="#fff" font-family="Arial, sans-serif" font-size="14" font-weight="700">03</text>
</svg>
